<svg xmlns="http://www.w3.org/2000/svg" xmlns:xlink="http://www.w3.org/1999/xlink" version="1.1" width="256" height="256" viewBox="0 0 256 256" xml:space="preserve">

<defs>
</defs>
<g style="stroke: none; stroke-width: 0; stroke-dasharray: none; stroke-linecap: butt; stroke-linejoin: miter; stroke-miterlimit: 10; fill: none; fill-rule: nonzero; opacity: 1;" transform="translate(1.4065934065934016 1.4065934065934016) scale(2.81 2.81)" >
	<circle cx="45" cy="45" r="45" style="stroke: none; stroke-width: 1; stroke-dasharray: none; stroke-linecap: butt; stroke-linejoin: miter; stroke-miterlimit: 10; fill: rgb(239,43,45); fill-rule: nonzero; opacity: 1;" transform="  matrix(1 0 0 1 0 0) "/>
	<path d="M 41.25 0.168 c -8.357 0.69 -16.064 3.661 -22.5 8.293 v 25.29 H 1.418 C 0.492 37.346 0 41.115 0 45 s 0.492 7.654 1.418 11.25 H 18.75 v 25.29 c 6.436 4.632 14.143 7.603 22.5 8.293 V 56.25 h 47.332 C 89.508 52.654 90 48.885 90 45 s -0.492 -7.654 -1.418 -11.25 H 41.25 V 0.168 z" style="stroke: none; stroke-width: 1; stroke-dasharray: none; stroke-linecap: butt; stroke-linejoin: miter; stroke-miterlimit: 10; fill: rgb(243,244,245); fill-rule: nonzero; opacity: 1;" transform=" matrix(1 0 0 1 0 0) " stroke-linecap="round" />
	<path d="M 35.625 0.985 c -3.97 0.842 -7.742 2.211 -11.25 4.024 v 34.366 H 0.362 C 0.132 41.219 0 43.094 0 45 s 0.132 3.781 0.362 5.625 h 24.013 v 34.366 c 3.508 1.813 7.28 3.182 11.25 4.024 v -38.39 h 54.013 C 89.868 48.781 90 46.906 90 45 s -0.132 -3.781 -0.362 -5.625 H 35.625 V 0.985 z" style="stroke: none; stroke-width: 1; stroke-dasharray: none; stroke-linecap: butt; stroke-linejoin: miter; stroke-miterlimit: 10; fill: rgb(0,40,104); fill-rule: nonzero; opacity: 1;" transform=" matrix(1 0 0 1 0 0) " stroke-linecap="round" />
</g>
</svg>